<svg version="1" xmlns="http://www.w3.org/2000/svg" width="682.667" height="682.667" viewBox="0 0 512.000000 512.000000"><path d="M245.7 53.6c-.1.1-3.3.4-7.2.7-24.7 2-47.7 8.4-71 19.8-15.2 7.4-19.5 9.9-30.8 18.2-12.7 9.2-22.6 18.3-32.9 30-26.4 30-42 63.9-48.4 105.2-2.3 15.4-2.3 43.3.1 55.6.3 1.3.8 4.4 1.1 6.9.9 7.2 6.2 26.3 9.8 35.8 6.8 17.8 16.8 35.6 28.7 51.4 6.2 8.1 26.5 29.1 32.4 33.5 1.7 1.2 5.4 4.1 8.3 6.4 20.1 15.5 53.5 30.3 79.8 35.3 2.9.6 17.5 2.8 21.4 3.3 4.9.6 31.6.5 37-.1 17-1.8 31.4-4.8 44.9-9.2 11.8-3.9 10.9-3.5 24.6-10 33.9-16.1 63.4-42.2 83.9-74.2 42-65.6 41.3-152.1-1.8-217-4.1-6.1-8-11.8-8.8-12.5-.7-.7-2.4-3-3.8-5-3.7-5.5-24.4-25.4-33.5-32.3-16.7-12.6-34.5-22.5-53.2-29.3-10.7-4-27.1-8.4-34.8-9.6-2.3-.3-5.2-.7-6.5-1-6.2-1.2-38.2-2.8-39.3-1.9zm23.8 133.8c12.4 2.8 24.5 9 33 16.8 29.1 26.5 30.2 71.4 2.5 99-19 18.8-45.9 25.2-71.4 16.7-19.8-6.6-36.3-23.3-43.3-43.8-5.8-17.2-3.3-42.5 5.6-55 1.2-1.6 2.1-3.2 2.1-3.5 0-1.1 2.2-3.6 9.5-11.1 9.9-10.1 24.3-17.7 36.5-19.2 2.5-.3 4.7-.7 4.9-.9.5-.4 18 .4 20.6 1z"/></svg>